<svg xmlns="http://www.w3.org/2000/svg" width="256" height="256" viewBox="0 0 256 256" role="img" aria-labelledby="title"><title id="title">Pokémon Typ Geist</title><defs><linearGradient id="surface" x1="0" y1="0" x2="0.7" y2="1"><stop stop-color="#9989c4"/><stop offset=".48" stop-color="#7660B0"/><stop offset="1" stop-color="#574489"/></linearGradient><linearGradient id="rim" x2="0" y2="1"><stop stop-color="white" stop-opacity=".7"/><stop offset=".5" stop-color="white" stop-opacity=".12"/><stop offset="1" stop-color="#000" stop-opacity=".18"/></linearGradient><radialGradient id="shine" cx=".35" cy=".12" r=".8"><stop stop-color="white" stop-opacity=".16"/><stop offset=".8" stop-color="white" stop-opacity="0"/></radialGradient><filter id="shadow" x="-20%" y="-20%" width="140%" height="150%"><feDropShadow dx="0" dy="4" stdDeviation="3" flood-color="#162033" flood-opacity=".23"/></filter><filter id="glyph" x="-15%" y="-15%" width="130%" height="135%"><feDropShadow dx="0" dy="2" stdDeviation="1.2" flood-color="#162033" flood-opacity=".19"/></filter></defs><circle cx="128" cy="126" r="115" fill="url(#surface)" filter="url(#shadow)"/><circle cx="128" cy="126" r="113.5" fill="url(#shine)" stroke="url(#rim)" stroke-width="2"/><g fill="white" filter="url(#glyph)"><path d="M77 129 C75 95 98 75 128 75 C159 75 180 96 180 128 C180 148 185 157 197 159 L174 174 L174 187 L153 182 L141 194 L124 184 L107 193 L97 178 C79 181 65 171 59 161 C74 158 78 144 77 129Z"/><path d="M96 120 Q110 130 120 132 Q116 151 104 143 Q97 139 96 120Z M160 120 Q146 130 136 132 Q140 151 152 143 Q159 139 160 120Z" fill="#7660B0"/></g></svg>